<svg width="471" height="323" viewBox="0 0 471 323" fill="none" xmlns="http://www.w3.org/2000/svg">
<path d="M423.599 306.214L438.346 306.552L445.888 306.664C448.364 306.664 450.954 306.664 453.43 306.777H453.88V306.327L453.993 293.719V293.156H453.43L438.571 293.269C433.618 293.269 428.665 293.381 423.712 293.494H423.374V293.831C423.374 295.97 423.487 298.109 423.487 300.248L423.599 306.214ZM423.599 306.214L423.712 299.798C423.712 297.659 423.824 295.633 423.824 293.606L423.487 293.944C428.44 294.057 433.393 294.169 438.346 294.169L453.205 294.282L452.642 293.719L452.755 306.327L453.205 305.876C450.728 305.876 448.252 305.876 445.888 305.989L438.458 306.101L423.599 306.214Z" fill="#EBEBEB"/>
<path d="M440.259 322.086L455.005 322.424L462.548 322.537C465.024 322.537 467.613 322.537 470.09 322.649H470.54V322.199L470.653 309.479V308.916H470.09L455.231 309.028C450.278 309.028 445.325 309.141 440.371 309.253H440.034V309.591C440.034 311.73 440.146 313.869 440.146 316.008L440.259 322.086ZM440.259 322.086L440.371 315.67C440.371 313.531 440.484 311.505 440.484 309.479L440.146 309.816C445.099 309.929 450.052 310.041 455.005 310.041L469.865 310.154L469.527 309.479L469.639 322.086L470.09 321.636C467.613 321.636 465.137 321.636 462.773 321.749L455.343 321.861L440.259 322.086Z" fill="#EBEBEB"/>
<path d="M58.9871 165.953L73.7337 166.29L81.2759 166.403C83.7524 166.403 86.3415 166.403 88.818 166.516H89.2683V166.065L89.3808 153.457V152.895H88.818L73.9589 153.007C69.0058 153.007 64.0528 153.12 59.0997 153.232H58.762V153.57C58.762 155.709 58.8746 157.848 58.8746 159.987L58.9871 165.953ZM58.9871 165.953L59.0997 159.536C59.0997 157.397 59.2123 155.371 59.2123 153.345L58.8746 153.683C63.8276 153.795 68.7807 153.908 73.7337 153.908L88.5929 154.02L88.03 153.457L88.1426 166.065L88.5929 165.615C86.1163 165.615 83.6398 165.615 81.2759 165.728L73.8463 165.84L58.9871 165.953Z" fill="#EBEBEB"/>
<path d="M75.647 181.825L90.3936 182.163L97.9357 182.275C100.412 182.275 103.001 182.275 105.478 182.388H105.928V181.938L106.041 169.33V168.767H105.478L90.6187 168.88C85.6657 168.88 80.7127 168.992 75.7596 169.105H75.4219V169.443C75.4219 171.581 75.5345 173.72 75.5345 175.859L75.647 181.825ZM75.647 181.825L75.7596 175.409C75.7596 173.27 75.8722 171.244 75.8722 169.217L75.5345 169.555C80.4875 169.668 85.4406 169.78 90.3936 169.78L105.253 169.893L104.69 169.33L104.802 181.938L105.253 181.487C102.776 181.487 100.3 181.487 97.9357 181.6L90.5062 181.713L75.647 181.825Z" fill="#EBEBEB"/>
<path d="M92.195 165.953L106.942 166.29L114.484 166.403C116.96 166.403 119.549 166.403 122.026 166.516H122.476V166.065L122.589 153.457V152.895H122.026L107.167 153.007C102.214 153.007 97.2606 153.12 92.3075 153.232H91.9698V153.57C91.9698 155.709 92.0824 157.848 92.0824 159.987L92.195 165.953ZM92.195 165.953L92.3075 159.536C92.3075 157.397 92.4201 155.371 92.4201 153.345L92.0824 153.683C97.0355 153.795 101.988 153.908 106.942 153.908L121.801 154.02L121.238 153.457L121.35 166.065L121.801 165.615C119.324 165.615 116.848 165.615 114.484 165.728L107.054 165.84L92.195 165.953Z" fill="#EBEBEB"/>
<path d="M0.338545 322.086L15.0851 322.424L22.6272 322.536C25.1038 322.536 27.6929 322.536 30.1694 322.649H30.6197V322.199L30.7322 309.591V309.028H30.1694L15.3102 309.141C10.3572 309.141 5.40413 309.253 0.451086 309.366H0.113392V309.703C0.113392 311.842 0.225969 313.981 0.225969 316.12L0.338545 322.086ZM0.338545 322.086L0.451086 315.67C0.451086 313.531 0.563663 311.505 0.563663 309.478L0.225969 309.816C5.17902 309.929 10.132 310.041 15.0851 310.041L29.9442 310.154L29.3814 309.591L29.494 322.199L29.9442 321.748C27.4677 321.748 24.9912 321.748 22.6272 321.861L15.1977 321.974L0.338545 322.086Z" fill="#EBEBEB"/>
<path d="M16.9982 13.9843L31.7448 14.322L39.2869 14.4346C41.7635 14.4346 44.3526 14.4346 46.8291 14.5471H47.2794V14.0969L47.3919 1.48912V0.92627H46.8291L31.9699 1.03884C27.0169 1.03884 22.0639 1.15141 17.1108 1.26398H16.7731V1.60168C16.7731 3.7405 16.8857 5.87931 16.8857 8.01813L16.9982 13.9843ZM16.9982 13.9843L17.1108 7.56785C17.1108 5.42904 17.2234 3.40279 17.2234 1.37654L16.8857 1.71425C21.8387 1.82682 26.7918 1.93939 31.7448 1.93939L46.6039 2.05196L46.0411 1.48912L46.2662 13.9843L46.7165 13.534C44.24 13.534 41.7635 13.534 39.3995 13.6466L31.9699 13.7592L16.9982 13.9843Z" fill="#EBEBEB"/>
<path d="M0.338545 29.8566L15.0851 30.1943L22.6272 30.3069C25.1038 30.3069 27.6929 30.3069 30.1694 30.4195H30.6197V29.9692L30.7322 17.3614V16.7986H30.1694L15.3102 16.9112C10.3572 16.9112 5.40413 17.0237 0.451086 17.1363H0.113392V17.474C0.113392 19.6128 0.225969 21.7516 0.225969 23.8904L0.338545 29.8566ZM0.338545 29.8566L0.451086 23.4402C0.451086 21.3014 0.563663 19.2751 0.563663 17.2489L0.225969 17.5866C5.17902 17.6991 10.132 17.8117 15.0851 17.8117L29.9442 17.9243L29.3814 17.3614L29.494 29.9692L29.9442 29.5189C27.4677 29.5189 24.9912 29.5189 22.6272 29.6315L15.1977 29.744L0.338545 29.8566Z" fill="#EBEBEB"/>
<path d="M423.599 13.9843L438.346 14.322L445.888 14.4346C448.364 14.4346 450.954 14.4346 453.43 14.5471H453.88V14.0969L453.993 1.48912V0.92627H453.43L438.571 1.03884C433.618 1.03884 428.665 1.15141 423.712 1.26398H423.374V1.60168C423.374 3.7405 423.487 5.87931 423.487 8.01813L423.599 13.9843ZM423.599 13.9843L423.712 7.56785C423.712 5.42904 423.824 3.40279 423.824 1.37654L423.487 1.71425C428.44 1.82682 433.393 1.93939 438.346 1.93939L453.205 2.05196L452.642 1.48912L452.755 14.0969L453.43 13.4215C450.954 13.4215 448.477 13.4215 446.113 13.534L438.684 13.6466L423.599 13.9843Z" fill="#EBEBEB"/>
</svg>
