<svg width="303" height="20" viewBox="0 0 303 20" fill="none" xmlns="http://www.w3.org/2000/svg">
<g clip-path="url(#clip0_2_11193)">
<path d="M186.75 13.315V15.967C186.75 16.1569 186.678 16.3397 186.549 16.4786C186.419 16.6176 186.242 16.7022 186.052 16.7155C185.725 16.738 185.457 16.75 185.25 16.75C178.622 16.75 173.25 11.3778 173.25 4.75C173.25 4.543 173.261 4.27525 173.285 3.9475C173.298 3.75808 173.382 3.58076 173.521 3.45131C173.66 3.32186 173.843 3.24991 174.033 3.25H176.685C176.778 3.24991 176.868 3.28439 176.937 3.34677C177.006 3.40914 177.049 3.49494 177.059 3.5875C177.076 3.76 177.092 3.89725 177.107 4.0015C177.256 5.04169 177.561 6.05337 178.013 7.00225C178.084 7.15225 178.037 7.3315 177.902 7.4275L176.284 8.584C177.273 10.8898 179.111 12.7274 181.417 13.717L182.572 12.1015C182.619 12.0355 182.688 11.9882 182.766 11.9677C182.845 11.9473 182.928 11.9551 183.002 11.9897C183.95 12.4404 184.962 12.7451 186.002 12.8935C186.106 12.9085 186.243 12.925 186.414 12.9415C186.506 12.951 186.592 12.9944 186.654 13.0634C186.716 13.1324 186.751 13.2221 186.751 13.315H186.75Z" fill="#FE9563"/>
</g>
<g clip-path="url(#clip1_2_11193)">
<path d="M2.25 3.25H15.75C15.9489 3.25 16.1397 3.32902 16.2803 3.46967C16.421 3.61032 16.5 3.80109 16.5 4V16C16.5 16.1989 16.421 16.3897 16.2803 16.5303C16.1397 16.671 15.9489 16.75 15.75 16.75H2.25C2.05109 16.75 1.86032 16.671 1.71967 16.5303C1.57902 16.3897 1.5 16.1989 1.5 16V4C1.5 3.80109 1.57902 3.61032 1.71967 3.46967C1.86032 3.32902 2.05109 3.25 2.25 3.25ZM9.045 9.76225L4.236 5.6785L3.26475 6.8215L9.05475 11.7378L14.7405 6.81775L13.7595 5.683L9.04575 9.76225H9.045Z" fill="#FE9563"/>
</g>
<path d="M36.6167 5.78613V15H35.4137V10.8227H30.7208V15H29.5179V5.78613H30.7208V9.83124H35.4137V5.78613H36.6167ZM45.2804 11.1003C45.2804 11.3294 45.2672 11.5718 45.2407 11.8274H39.4507C39.4947 12.5412 39.7371 13.1008 40.1777 13.5062C40.6272 13.9028 41.1692 14.1011 41.8037 14.1011C42.3237 14.1011 42.7555 13.9821 43.0992 13.7442C43.4517 13.4974 43.6985 13.1713 43.8395 12.7659H45.135C44.9411 13.4622 44.5533 14.0306 43.9717 14.4712C43.39 14.9031 42.6674 15.119 41.8037 15.119C41.1163 15.119 40.4994 14.9647 39.953 14.6563C39.4154 14.3478 38.9924 13.9116 38.6839 13.3476C38.3755 12.7747 38.2213 12.1138 38.2213 11.3647C38.2213 10.6156 38.3711 9.95903 38.6707 9.39501C38.9704 8.83098 39.389 8.39915 39.9266 8.09951C40.473 7.79106 41.0987 7.63684 41.8037 7.63684C42.4911 7.63684 43.0992 7.78666 43.628 8.08629C44.1567 8.38593 44.5621 8.80014 44.8441 9.32891C45.135 9.84887 45.2804 10.4393 45.2804 11.1003ZM44.0378 10.8491C44.0378 10.3909 43.9364 9.99869 43.7337 9.67261C43.531 9.33772 43.2534 9.08656 42.9009 8.91911C42.5572 8.74285 42.1738 8.65472 41.7508 8.65472C41.1427 8.65472 40.6228 8.84861 40.1909 9.23637C39.7679 9.62414 39.5256 10.1617 39.4639 10.8491H44.0378ZM48.0712 5.2177V15H46.8682V5.2177H48.0712ZM51.3244 5.2177V15H50.1214V5.2177H51.3244ZM56.5341 15.119C55.8555 15.119 55.2386 14.9647 54.6833 14.6563C54.1369 14.3478 53.7051 13.9116 53.3879 13.3476C53.0794 12.7747 52.9252 12.1138 52.9252 11.3647C52.9252 10.6244 53.0838 9.97225 53.4011 9.40823C53.7271 8.83539 54.1678 8.39915 54.723 8.09951C55.2782 7.79106 55.8995 7.63684 56.5869 7.63684C57.2743 7.63684 57.8956 7.79106 58.4509 8.09951C59.0061 8.39915 59.4423 8.83098 59.7596 9.39501C60.0856 9.95903 60.2487 10.6156 60.2487 11.3647C60.2487 12.1138 60.0812 12.7747 59.7463 13.3476C59.4203 13.9116 58.9752 14.3478 58.4112 14.6563C57.8472 14.9647 57.2215 15.119 56.5341 15.119ZM56.5341 14.0614C56.9659 14.0614 57.3713 13.9601 57.7502 13.7574C58.1292 13.5547 58.4332 13.2506 58.6624 12.8453C58.9003 12.4399 59.0193 11.9463 59.0193 11.3647C59.0193 10.783 58.9047 10.2895 58.6756 9.88412C58.4464 9.47873 58.1468 9.17909 57.7767 8.98521C57.4065 8.78251 57.0055 8.68116 56.5737 8.68116C56.1331 8.68116 55.7277 8.78251 55.3575 8.98521C54.9962 9.17909 54.7054 9.47873 54.4851 9.88412C54.2647 10.2895 54.1546 10.783 54.1546 11.3647C54.1546 11.9551 54.2603 12.4531 54.4718 12.8585C54.6922 13.2639 54.983 13.5679 55.3443 13.7706C55.7056 13.9645 56.1022 14.0614 56.5341 14.0614ZM68.44 6.52641C69.4182 6.52641 70.2687 6.71148 70.9913 7.08162C71.714 7.45177 72.2692 7.97173 72.657 8.64151C73.0447 9.30247 73.2386 10.0692 73.2386 10.9417C73.2386 11.6379 73.1241 12.3077 72.8949 12.951C72.6658 13.5855 72.3309 14.1011 71.8903 14.4977C71.4584 14.8942 70.9517 15.0925 70.37 15.0925C69.9294 15.0925 69.5901 14.9824 69.3521 14.7621C69.1142 14.5417 68.9776 14.2421 68.9423 13.8631C68.6692 14.2421 68.321 14.5417 67.898 14.7621C67.4838 14.9824 67.0432 15.0925 66.5761 15.0925C65.9063 15.0925 65.3775 14.8898 64.9898 14.4844C64.6108 14.0702 64.4213 13.515 64.4213 12.8188C64.4213 12.1578 64.5579 11.5409 64.8311 10.9681C65.1132 10.3953 65.5009 9.937 65.9944 9.5933C66.488 9.24078 67.0476 9.06452 67.6733 9.06452C68.5105 9.06452 69.0745 9.38179 69.3654 10.0163L69.5108 9.19672H70.5551L69.8941 13.0171C69.8677 13.1845 69.8545 13.3388 69.8545 13.4798C69.8545 14.0086 70.088 14.2729 70.5551 14.2729C70.9076 14.2729 71.2117 14.1055 71.4672 13.7706C71.7316 13.4357 71.9299 13.0171 72.0621 12.5148C72.1943 12.0036 72.2604 11.5013 72.2604 11.0078C72.2604 9.85328 71.9123 8.95877 71.2161 8.32424C70.5287 7.68971 69.5548 7.37245 68.2946 7.37245C67.2459 7.37245 66.2985 7.62802 65.4524 8.13917C64.6152 8.64151 63.9587 9.33332 63.4828 10.2146C63.0069 11.0959 62.7689 12.0697 62.7689 13.1361C62.7601 14.2994 63.1082 15.1939 63.8133 15.8196C64.5183 16.4541 65.4965 16.7714 66.7479 16.7714C67.5764 16.7714 68.3078 16.6216 68.9423 16.3219L69.101 17.1415C68.3166 17.4676 67.453 17.6306 66.51 17.6306C65.567 17.6306 64.7342 17.45 64.0115 17.0887C63.2977 16.7361 62.7425 16.225 62.3459 15.5552C61.9581 14.8942 61.7643 14.1231 61.7643 13.2418C61.7643 11.9992 62.0507 10.8668 62.6235 9.84446C63.1964 8.81336 63.9895 8.00257 65.003 7.41211C66.0253 6.82165 67.171 6.52641 68.44 6.52641ZM66.933 14.154C67.3296 14.154 67.6953 14.0394 68.0302 13.8103C68.3651 13.5723 68.6295 13.255 68.8234 12.8585C69.0173 12.4531 69.1142 12.0124 69.1142 11.5365C69.1142 11.0783 68.9864 10.7081 68.7308 10.4261C68.4841 10.1353 68.1316 9.98988 67.6733 9.98988C67.2503 9.98988 66.8757 10.1177 66.5497 10.3732C66.2324 10.62 65.9856 10.9505 65.8094 11.3647C65.6331 11.7701 65.545 12.1931 65.545 12.6337C65.545 13.1008 65.664 13.471 65.9019 13.7442C66.1399 14.0174 66.4836 14.154 66.933 14.154ZM81.457 7.75581L77.0946 18.4106H75.852L77.2797 14.9207L74.3582 7.75581H75.6934L77.9671 13.6252L80.2144 7.75581H81.457ZM85.8257 15.119C85.1471 15.119 84.5302 14.9647 83.975 14.6563C83.4286 14.3478 82.9968 13.9116 82.6795 13.3476C82.371 12.7747 82.2168 12.1138 82.2168 11.3647C82.2168 10.6244 82.3755 9.97225 82.6927 9.40823C83.0188 8.83539 83.4594 8.39915 84.0147 8.09951C84.5699 7.79106 85.1912 7.63684 85.8786 7.63684C86.566 7.63684 87.1873 7.79106 87.7425 8.09951C88.2977 8.39915 88.7339 8.83098 89.0512 9.39501C89.3773 9.95903 89.5403 10.6156 89.5403 11.3647C89.5403 12.1138 89.3729 12.7747 89.038 13.3476C88.7119 13.9116 88.2669 14.3478 87.7028 14.6563C87.1388 14.9647 86.5131 15.119 85.8257 15.119ZM85.8257 14.0614C86.2575 14.0614 86.6629 13.9601 87.0419 13.7574C87.4208 13.5547 87.7249 13.2506 87.954 12.8453C88.192 12.4399 88.3109 11.9463 88.3109 11.3647C88.3109 10.783 88.1964 10.2895 87.9672 9.88412C87.7381 9.47873 87.4385 9.17909 87.0683 8.98521C86.6982 8.78251 86.2972 8.68116 85.8654 8.68116C85.4247 8.68116 85.0193 8.78251 84.6492 8.98521C84.2879 9.17909 83.997 9.47873 83.7767 9.88412C83.5564 10.2895 83.4462 10.783 83.4462 11.3647C83.4462 11.9551 83.552 12.4531 83.7635 12.8585C83.9838 13.2639 84.2746 13.5679 84.636 13.7706C84.9973 13.9645 85.3939 14.0614 85.8257 14.0614ZM97.5466 7.75581V15H96.3436V13.9292C96.1145 14.2994 95.7928 14.5902 95.3786 14.8017C94.9732 15.0044 94.5238 15.1058 94.0302 15.1058C93.4662 15.1058 92.9595 14.9912 92.51 14.7621C92.0606 14.5241 91.7036 14.1716 91.4393 13.7045C91.1837 13.2374 91.0559 12.669 91.0559 11.9992V7.75581H92.2456V11.8406C92.2456 12.5544 92.4263 13.1052 92.7876 13.493C93.149 13.872 93.6425 14.0614 94.2682 14.0614C94.9115 14.0614 95.4183 13.8631 95.7884 13.4666C96.1586 13.07 96.3436 12.4927 96.3436 11.7348V7.75581H97.5466ZM100.781 8.93233C100.992 8.51812 101.292 8.19645 101.68 7.96732C102.076 7.73818 102.556 7.62362 103.12 7.62362V8.86623H102.803C101.455 8.86623 100.781 9.5977 100.781 11.0606V15H99.5777V7.75581H100.781V8.93233ZM104.06 11.3515C104.06 10.6112 104.21 9.96344 104.509 9.40823C104.809 8.8442 105.219 8.40796 105.739 8.09951C106.267 7.79106 106.853 7.63684 107.497 7.63684C108.131 7.63684 108.682 7.77344 109.149 8.04664C109.616 8.31983 109.964 8.66354 110.193 9.07774V7.75581H111.41V15H110.193V13.6516C109.956 14.0746 109.599 14.4272 109.123 14.7092C108.656 14.9824 108.109 15.119 107.483 15.119C106.84 15.119 106.259 14.9603 105.739 14.6431C105.219 14.3258 104.809 13.8808 104.509 13.3079C104.21 12.7351 104.06 12.0829 104.06 11.3515ZM110.193 11.3647C110.193 10.8183 110.083 10.3424 109.863 9.937C109.643 9.53161 109.343 9.22316 108.964 9.01165C108.594 8.79132 108.184 8.68116 107.735 8.68116C107.285 8.68116 106.875 8.78692 106.505 8.99843C106.135 9.20994 105.84 9.51839 105.62 9.92378C105.399 10.3292 105.289 10.8051 105.289 11.3515C105.289 11.9067 105.399 12.3914 105.62 12.8056C105.84 13.211 106.135 13.5238 106.505 13.7442C106.875 13.9557 107.285 14.0614 107.735 14.0614C108.184 14.0614 108.594 13.9557 108.964 13.7442C109.343 13.5238 109.643 13.211 109.863 12.8056C110.083 12.3914 110.193 11.9111 110.193 11.3647ZM114.645 9.09096C114.883 8.67676 115.236 8.33305 115.703 8.05985C116.179 7.77784 116.73 7.63684 117.355 7.63684C117.999 7.63684 118.58 7.79106 119.1 8.09951C119.629 8.40796 120.043 8.8442 120.343 9.40823C120.643 9.96344 120.792 10.6112 120.792 11.3515C120.792 12.0829 120.643 12.7351 120.343 13.3079C120.043 13.8808 119.629 14.3258 119.1 14.6431C118.58 14.9603 117.999 15.119 117.355 15.119C116.739 15.119 116.192 14.9824 115.716 14.7092C115.249 14.4272 114.892 14.0791 114.645 13.6648V18.437H113.443V7.75581H114.645V9.09096ZM119.563 11.3515C119.563 10.8051 119.453 10.3292 119.233 9.92378C119.012 9.51839 118.713 9.20994 118.334 8.99843C117.964 8.78692 117.554 8.68116 117.104 8.68116C116.664 8.68116 116.254 8.79132 115.875 9.01165C115.505 9.22316 115.205 9.53601 114.976 9.95022C114.756 10.3556 114.645 10.8271 114.645 11.3647C114.645 11.9111 114.756 12.3914 114.976 12.8056C115.205 13.211 115.505 13.5238 115.875 13.7442C116.254 13.9557 116.664 14.0614 117.104 14.0614C117.554 14.0614 117.964 13.9557 118.334 13.7442C118.713 13.5238 119.012 13.211 119.233 12.8056C119.453 12.3914 119.563 11.9067 119.563 11.3515ZM123.579 9.09096C123.817 8.67676 124.169 8.33305 124.636 8.05985C125.112 7.77784 125.663 7.63684 126.289 7.63684C126.932 7.63684 127.514 7.79106 128.034 8.09951C128.563 8.40796 128.977 8.8442 129.276 9.40823C129.576 9.96344 129.726 10.6112 129.726 11.3515C129.726 12.0829 129.576 12.7351 129.276 13.3079C128.977 13.8808 128.563 14.3258 128.034 14.6431C127.514 14.9603 126.932 15.119 126.289 15.119C125.672 15.119 125.126 14.9824 124.65 14.7092C124.183 14.4272 123.826 14.0791 123.579 13.6648V18.437H122.376V7.75581H123.579V9.09096ZM128.496 11.3515C128.496 10.8051 128.386 10.3292 128.166 9.92378C127.946 9.51839 127.646 9.20994 127.267 8.99843C126.897 8.78692 126.487 8.68116 126.038 8.68116C125.597 8.68116 125.187 8.79132 124.808 9.01165C124.438 9.22316 124.138 9.53601 123.909 9.95022C123.689 10.3556 123.579 10.8271 123.579 11.3647C123.579 11.9111 123.689 12.3914 123.909 12.8056C124.138 13.211 124.438 13.5238 124.808 13.7442C125.187 13.9557 125.597 14.0614 126.038 14.0614C126.487 14.0614 126.897 13.9557 127.267 13.7442C127.646 13.5238 127.946 13.211 128.166 12.8056C128.386 12.3914 128.496 11.9067 128.496 11.3515ZM131.693 15.0793C131.463 15.0793 131.27 15 131.111 14.8414C130.952 14.6827 130.873 14.4889 130.873 14.2597C130.873 14.0306 130.952 13.8367 131.111 13.6781C131.27 13.5194 131.463 13.4401 131.693 13.4401C131.913 13.4401 132.098 13.5194 132.248 13.6781C132.406 13.8367 132.486 14.0306 132.486 14.2597C132.486 14.4889 132.406 14.6827 132.248 14.8414C132.098 15 131.913 15.0793 131.693 15.0793ZM133.635 11.3647C133.635 10.6156 133.785 9.96344 134.085 9.40823C134.384 8.8442 134.799 8.40796 135.327 8.09951C135.865 7.79106 136.477 7.63684 137.165 7.63684C138.055 7.63684 138.786 7.85275 139.359 8.28458C139.941 8.71641 140.324 9.31569 140.509 10.0824H139.214C139.091 9.64177 138.848 9.29366 138.487 9.03808C138.134 8.78251 137.694 8.65472 137.165 8.65472C136.477 8.65472 135.922 8.89267 135.499 9.36857C135.076 9.83565 134.865 10.501 134.865 11.3647C134.865 12.2372 135.076 12.9113 135.499 13.3872C135.922 13.8631 136.477 14.1011 137.165 14.1011C137.694 14.1011 138.134 13.9777 138.487 13.7309C138.839 13.4842 139.082 13.1317 139.214 12.6734H140.509C140.316 13.4137 139.928 14.0086 139.346 14.458C138.764 14.8987 138.037 15.119 137.165 15.119C136.477 15.119 135.865 14.9647 135.327 14.6563C134.799 14.3478 134.384 13.9116 134.085 13.3476C133.785 12.7836 133.635 12.1226 133.635 11.3647ZM145.274 15.119C144.595 15.119 143.978 14.9647 143.423 14.6563C142.877 14.3478 142.445 13.9116 142.128 13.3476C141.819 12.7747 141.665 12.1138 141.665 11.3647C141.665 10.6244 141.824 9.97225 142.141 9.40823C142.467 8.83539 142.908 8.39915 143.463 8.09951C144.018 7.79106 144.639 7.63684 145.327 7.63684C146.014 7.63684 146.636 7.79106 147.191 8.09951C147.746 8.39915 148.182 8.83098 148.499 9.39501C148.826 9.95903 148.989 10.6156 148.989 11.3647C148.989 12.1138 148.821 12.7747 148.486 13.3476C148.16 13.9116 147.715 14.3478 147.151 14.6563C146.587 14.9647 145.961 15.119 145.274 15.119ZM145.274 14.0614C145.706 14.0614 146.111 13.9601 146.49 13.7574C146.869 13.5547 147.173 13.2506 147.402 12.8453C147.64 12.4399 147.759 11.9463 147.759 11.3647C147.759 10.783 147.645 10.2895 147.415 9.88412C147.186 9.47873 146.887 9.17909 146.517 8.98521C146.146 8.78251 145.745 8.68116 145.314 8.68116C144.873 8.68116 144.468 8.78251 144.097 8.98521C143.736 9.17909 143.445 9.47873 143.225 9.88412C143.005 10.2895 142.894 10.783 142.894 11.3647C142.894 11.9551 143 12.4531 143.212 12.8585C143.432 13.2639 143.723 13.5679 144.084 13.7706C144.446 13.9645 144.842 14.0614 145.274 14.0614ZM159.282 7.62362C159.846 7.62362 160.348 7.74259 160.789 7.98054C161.229 8.20967 161.578 8.55778 161.833 9.02487C162.089 9.49195 162.216 10.0604 162.216 10.7302V15H161.027V10.902C161.027 10.1794 160.846 9.62855 160.485 9.24959C160.132 8.86183 159.652 8.66794 159.044 8.66794C158.418 8.66794 157.92 8.87064 157.55 9.27603C157.18 9.67261 156.995 10.2499 156.995 11.0078V15H155.805V10.902C155.805 10.1794 155.624 9.62855 155.263 9.24959C154.911 8.86183 154.43 8.66794 153.822 8.66794C153.196 8.66794 152.699 8.87064 152.328 9.27603C151.958 9.67261 151.773 10.2499 151.773 11.0078V15H150.57V7.75581H151.773V8.80014C152.011 8.42118 152.328 8.13036 152.725 7.92766C153.13 7.72497 153.575 7.62362 154.06 7.62362C154.668 7.62362 155.206 7.76022 155.673 8.03342C156.14 8.30662 156.488 8.7076 156.717 9.23637C156.92 8.72523 157.255 8.32865 157.722 8.04664C158.189 7.76462 158.709 7.62362 159.282 7.62362Z" fill="black"/>
<path d="M207.392 10.6773H204.576V13.5327H203.453V10.6773H200.65V9.65939H203.453V6.7908H204.576V9.65939H207.392V10.6773ZM209.343 10.1221C209.343 8.60625 209.59 7.42533 210.084 6.57929C210.577 5.72444 211.441 5.29702 212.675 5.29702C213.9 5.29702 214.759 5.72444 215.252 6.57929C215.746 7.42533 215.993 8.60625 215.993 10.1221C215.993 11.6643 215.746 12.8629 215.252 13.7177C214.759 14.5726 213.9 15 212.675 15C211.441 15 210.577 14.5726 210.084 13.7177C209.59 12.8629 209.343 11.6643 209.343 10.1221ZM214.803 10.1221C214.803 9.35535 214.75 8.7076 214.644 8.17883C214.547 7.64124 214.34 7.20941 214.023 6.88334C213.715 6.55726 213.265 6.39422 212.675 6.39422C212.075 6.39422 211.617 6.55726 211.3 6.88334C210.991 7.20941 210.784 7.64124 210.678 8.17883C210.582 8.7076 210.533 9.35535 210.533 10.1221C210.533 10.9152 210.582 11.5806 210.678 12.1182C210.784 12.6558 210.991 13.0876 211.3 13.4137C211.617 13.7398 212.075 13.9028 212.675 13.9028C213.265 13.9028 213.715 13.7398 214.023 13.4137C214.34 13.0876 214.547 12.6558 214.644 12.1182C214.75 11.5806 214.803 10.9152 214.803 10.1221ZM217.644 10.1221C217.644 8.60625 217.891 7.42533 218.384 6.57929C218.878 5.72444 219.742 5.29702 220.975 5.29702C222.2 5.29702 223.06 5.72444 223.553 6.57929C224.047 7.42533 224.293 8.60625 224.293 10.1221C224.293 11.6643 224.047 12.8629 223.553 13.7177C223.06 14.5726 222.2 15 220.975 15C219.742 15 218.878 14.5726 218.384 13.7177C217.891 12.8629 217.644 11.6643 217.644 10.1221ZM223.104 10.1221C223.104 9.35535 223.051 8.7076 222.945 8.17883C222.848 7.64124 222.641 7.20941 222.324 6.88334C222.015 6.55726 221.566 6.39422 220.975 6.39422C220.376 6.39422 219.918 6.55726 219.601 6.88334C219.292 7.20941 219.085 7.64124 218.979 8.17883C218.882 8.7076 218.834 9.35535 218.834 10.1221C218.834 10.9152 218.882 11.5806 218.979 12.1182C219.085 12.6558 219.292 13.0876 219.601 13.4137C219.918 13.7398 220.376 13.9028 220.975 13.9028C221.566 13.9028 222.015 13.7398 222.324 13.4137C222.641 13.0876 222.848 12.6558 222.945 12.1182C223.051 11.5806 223.104 10.9152 223.104 10.1221ZM225.945 10.1221C225.945 8.60625 226.192 7.42533 226.685 6.57929C227.179 5.72444 228.042 5.29702 229.276 5.29702C230.501 5.29702 231.36 5.72444 231.854 6.57929C232.348 7.42533 232.594 8.60625 232.594 10.1221C232.594 11.6643 232.348 12.8629 231.854 13.7177C231.36 14.5726 230.501 15 229.276 15C228.042 15 227.179 14.5726 226.685 13.7177C226.192 12.8629 225.945 11.6643 225.945 10.1221ZM231.405 10.1221C231.405 9.35535 231.352 8.7076 231.246 8.17883C231.149 7.64124 230.942 7.20941 230.625 6.88334C230.316 6.55726 229.867 6.39422 229.276 6.39422C228.677 6.39422 228.219 6.55726 227.901 6.88334C227.593 7.20941 227.386 7.64124 227.28 8.17883C227.183 8.7076 227.135 9.35535 227.135 10.1221C227.135 10.9152 227.183 11.5806 227.28 12.1182C227.386 12.6558 227.593 13.0876 227.901 13.4137C228.219 13.7398 228.677 13.9028 229.276 13.9028C229.867 13.9028 230.316 13.7398 230.625 13.4137C230.942 13.0876 231.149 12.6558 231.246 12.1182C231.352 11.5806 231.405 10.9152 231.405 10.1221ZM237.77 10.1221C237.77 8.60625 238.017 7.42533 238.51 6.57929C239.004 5.72444 239.868 5.29702 241.101 5.29702C242.326 5.29702 243.186 5.72444 243.679 6.57929C244.173 7.42533 244.419 8.60625 244.419 10.1221C244.419 11.6643 244.173 12.8629 243.679 13.7177C243.186 14.5726 242.326 15 241.101 15C239.868 15 239.004 14.5726 238.51 13.7177C238.017 12.8629 237.77 11.6643 237.77 10.1221ZM243.23 10.1221C243.23 9.35535 243.177 8.7076 243.071 8.17883C242.974 7.64124 242.767 7.20941 242.45 6.88334C242.141 6.55726 241.692 6.39422 241.101 6.39422C240.502 6.39422 240.044 6.55726 239.727 6.88334C239.418 7.20941 239.211 7.64124 239.105 8.17883C239.008 8.7076 238.96 9.35535 238.96 10.1221C238.96 10.9152 239.008 11.5806 239.105 12.1182C239.211 12.6558 239.418 13.0876 239.727 13.4137C240.044 13.7398 240.502 13.9028 241.101 13.9028C241.692 13.9028 242.141 13.7398 242.45 13.4137C242.767 13.0876 242.974 12.6558 243.071 12.1182C243.177 11.5806 243.23 10.9152 243.23 10.1221ZM246.071 10.1221C246.071 8.60625 246.318 7.42533 246.811 6.57929C247.305 5.72444 248.168 5.29702 249.402 5.29702C250.627 5.29702 251.486 5.72444 251.98 6.57929C252.473 7.42533 252.72 8.60625 252.72 10.1221C252.72 11.6643 252.473 12.8629 251.98 13.7177C251.486 14.5726 250.627 15 249.402 15C248.168 15 247.305 14.5726 246.811 13.7177C246.318 12.8629 246.071 11.6643 246.071 10.1221ZM251.53 10.1221C251.53 9.35535 251.478 8.7076 251.372 8.17883C251.275 7.64124 251.068 7.20941 250.75 6.88334C250.442 6.55726 249.993 6.39422 249.402 6.39422C248.803 6.39422 248.345 6.55726 248.027 6.88334C247.719 7.20941 247.512 7.64124 247.406 8.17883C247.309 8.7076 247.261 9.35535 247.261 10.1221C247.261 10.9152 247.309 11.5806 247.406 12.1182C247.512 12.6558 247.719 13.0876 248.027 13.4137C248.345 13.7398 248.803 13.9028 249.402 13.9028C249.993 13.9028 250.442 13.7398 250.75 13.4137C251.068 13.0876 251.275 12.6558 251.372 12.1182C251.478 11.5806 251.53 10.9152 251.53 10.1221ZM254.372 10.1221C254.372 8.60625 254.618 7.42533 255.112 6.57929C255.605 5.72444 256.469 5.29702 257.703 5.29702C258.928 5.29702 259.787 5.72444 260.281 6.57929C260.774 7.42533 261.021 8.60625 261.021 10.1221C261.021 11.6643 260.774 12.8629 260.281 13.7177C259.787 14.5726 258.928 15 257.703 15C256.469 15 255.605 14.5726 255.112 13.7177C254.618 12.8629 254.372 11.6643 254.372 10.1221ZM259.831 10.1221C259.831 9.35535 259.778 8.7076 259.673 8.17883C259.576 7.64124 259.369 7.20941 259.051 6.88334C258.743 6.55726 258.293 6.39422 257.703 6.39422C257.104 6.39422 256.645 6.55726 256.328 6.88334C256.02 7.20941 255.813 7.64124 255.707 8.17883C255.61 8.7076 255.561 9.35535 255.561 10.1221C255.561 10.9152 255.61 11.5806 255.707 12.1182C255.813 12.6558 256.02 13.0876 256.328 13.4137C256.645 13.7398 257.104 13.9028 257.703 13.9028C258.293 13.9028 258.743 13.7398 259.051 13.4137C259.369 13.0876 259.576 12.6558 259.673 12.1182C259.778 11.5806 259.831 10.9152 259.831 10.1221ZM266.197 10.1221C266.197 8.60625 266.444 7.42533 266.937 6.57929C267.431 5.72444 268.294 5.29702 269.528 5.29702C270.753 5.29702 271.612 5.72444 272.106 6.57929C272.599 7.42533 272.846 8.60625 272.846 10.1221C272.846 11.6643 272.599 12.8629 272.106 13.7177C271.612 14.5726 270.753 15 269.528 15C268.294 15 267.431 14.5726 266.937 13.7177C266.444 12.8629 266.197 11.6643 266.197 10.1221ZM271.656 10.1221C271.656 9.35535 271.603 8.7076 271.498 8.17883C271.401 7.64124 271.194 7.20941 270.876 6.88334C270.568 6.55726 270.118 6.39422 269.528 6.39422C268.929 6.39422 268.47 6.55726 268.153 6.88334C267.845 7.20941 267.638 7.64124 267.532 8.17883C267.435 8.7076 267.386 9.35535 267.386 10.1221C267.386 10.9152 267.435 11.5806 267.532 12.1182C267.638 12.6558 267.845 13.0876 268.153 13.4137C268.47 13.7398 268.929 13.9028 269.528 13.9028C270.118 13.9028 270.568 13.7398 270.876 13.4137C271.194 13.0876 271.401 12.6558 271.498 12.1182C271.603 11.5806 271.656 10.9152 271.656 10.1221ZM274.498 10.1221C274.498 8.60625 274.744 7.42533 275.238 6.57929C275.731 5.72444 276.595 5.29702 277.829 5.29702C279.054 5.29702 279.913 5.72444 280.407 6.57929C280.9 7.42533 281.147 8.60625 281.147 10.1221C281.147 11.6643 280.9 12.8629 280.407 13.7177C279.913 14.5726 279.054 15 277.829 15C276.595 15 275.731 14.5726 275.238 13.7177C274.744 12.8629 274.498 11.6643 274.498 10.1221ZM279.957 10.1221C279.957 9.35535 279.904 8.7076 279.799 8.17883C279.702 7.64124 279.494 7.20941 279.177 6.88334C278.869 6.55726 278.419 6.39422 277.829 6.39422C277.23 6.39422 276.771 6.55726 276.454 6.88334C276.146 7.20941 275.938 7.64124 275.833 8.17883C275.736 8.7076 275.687 9.35535 275.687 10.1221C275.687 10.9152 275.736 11.5806 275.833 12.1182C275.938 12.6558 276.146 13.0876 276.454 13.4137C276.771 13.7398 277.23 13.9028 277.829 13.9028C278.419 13.9028 278.869 13.7398 279.177 13.4137C279.494 13.0876 279.702 12.6558 279.799 12.1182C279.904 11.5806 279.957 10.9152 279.957 10.1221ZM286.323 10.1221C286.323 8.60625 286.569 7.42533 287.063 6.57929C287.556 5.72444 288.42 5.29702 289.654 5.29702C290.879 5.29702 291.738 5.72444 292.232 6.57929C292.725 7.42533 292.972 8.60625 292.972 10.1221C292.972 11.6643 292.725 12.8629 292.232 13.7177C291.738 14.5726 290.879 15 289.654 15C288.42 15 287.556 14.5726 287.063 13.7177C286.569 12.8629 286.323 11.6643 286.323 10.1221ZM291.782 10.1221C291.782 9.35535 291.729 8.7076 291.624 8.17883C291.527 7.64124 291.32 7.20941 291.002 6.88334C290.694 6.55726 290.244 6.39422 289.654 6.39422C289.055 6.39422 288.596 6.55726 288.279 6.88334C287.971 7.20941 287.764 7.64124 287.658 8.17883C287.561 8.7076 287.512 9.35535 287.512 10.1221C287.512 10.9152 287.561 11.5806 287.658 12.1182C287.764 12.6558 287.971 13.0876 288.279 13.4137C288.596 13.7398 289.055 13.9028 289.654 13.9028C290.244 13.9028 290.694 13.7398 291.002 13.4137C291.32 13.0876 291.527 12.6558 291.624 12.1182C291.729 11.5806 291.782 10.9152 291.782 10.1221ZM294.623 10.1221C294.623 8.60625 294.87 7.42533 295.364 6.57929C295.857 5.72444 296.721 5.29702 297.955 5.29702C299.18 5.29702 300.039 5.72444 300.532 6.57929C301.026 7.42533 301.273 8.60625 301.273 10.1221C301.273 11.6643 301.026 12.8629 300.532 13.7177C300.039 14.5726 299.18 15 297.955 15C296.721 15 295.857 14.5726 295.364 13.7177C294.87 12.8629 294.623 11.6643 294.623 10.1221ZM300.083 10.1221C300.083 9.35535 300.03 8.7076 299.924 8.17883C299.827 7.64124 299.62 7.20941 299.303 6.88334C298.995 6.55726 298.545 6.39422 297.955 6.39422C297.355 6.39422 296.897 6.55726 296.58 6.88334C296.271 7.20941 296.064 7.64124 295.959 8.17883C295.862 8.7076 295.813 9.35535 295.813 10.1221C295.813 10.9152 295.862 11.5806 295.959 12.1182C296.064 12.6558 296.271 13.0876 296.58 13.4137C296.897 13.7398 297.355 13.9028 297.955 13.9028C298.545 13.9028 298.995 13.7398 299.303 13.4137C299.62 13.0876 299.827 12.6558 299.924 12.1182C300.03 11.5806 300.083 10.9152 300.083 10.1221Z" fill="black"/>
<defs>
<clipPath id="clip0_2_11193">
<rect width="18" height="18" fill="white" transform="translate(171 1)"/>
</clipPath>
<clipPath id="clip1_2_11193">
<rect width="18" height="18" fill="white" transform="translate(0 1)"/>
</clipPath>
</defs>
</svg>
